<mxfile host="Electron" modified="2024-03-05T08:45:42.844Z" agent="Mozilla/5.0 (Windows NT 10.0; Win64; x64) AppleWebKit/537.36 (KHTML, like Gecko) draw.io/23.1.5 Chrome/120.0.6099.109 Electron/28.1.0 Safari/537.36" etag="8_9_rM7t26L5N5_5YHB8" version="23.1.5" type="device" pages="2">
  <diagram name="Página-1" id="7NgslW8XqfKQmeEcyZf8">
    <mxGraphModel dx="1434" dy="836" grid="1" gridSize="10" guides="1" tooltips="1" connect="1" arrows="1" fold="1" page="1" pageScale="1" pageWidth="827" pageHeight="1169" math="0" shadow="0">
      <root>
        <mxCell id="0" />
        <mxCell id="1" parent="0" />
        <mxCell id="aa29xDfJAw8vbNUwCW9A-1" value="iWidget" style="html=1;whiteSpace=wrap;" parent="1" vertex="1">
          <mxGeometry x="351" y="120" width="110" height="50" as="geometry" />
        </mxCell>
        <mxCell id="aa29xDfJAw8vbNUwCW9A-20" style="rounded=0;orthogonalLoop=1;jettySize=auto;html=1;endArrow=block;endFill=0;" parent="1" source="aa29xDfJAw8vbNUwCW9A-2" target="aa29xDfJAw8vbNUwCW9A-1" edge="1">
          <mxGeometry relative="1" as="geometry" />
        </mxCell>
        <mxCell id="aa29xDfJAw8vbNUwCW9A-25" style="rounded=0;orthogonalLoop=1;jettySize=auto;html=1;edgeStyle=orthogonalEdgeStyle;exitX=0.5;exitY=0;exitDx=0;exitDy=0;entryX=0;entryY=0.5;entryDx=0;entryDy=0;" parent="1" source="aa29xDfJAw8vbNUwCW9A-2" target="aa29xDfJAw8vbNUwCW9A-1" edge="1">
          <mxGeometry relative="1" as="geometry" />
        </mxCell>
        <mxCell id="aa29xDfJAw8vbNUwCW9A-2" value="iWindow" style="html=1;whiteSpace=wrap;" parent="1" vertex="1">
          <mxGeometry x="210" y="290" width="110" height="50" as="geometry" />
        </mxCell>
        <mxCell id="aa29xDfJAw8vbNUwCW9A-21" style="rounded=0;orthogonalLoop=1;jettySize=auto;html=1;endArrow=block;endFill=0;" parent="1" source="aa29xDfJAw8vbNUwCW9A-3" target="aa29xDfJAw8vbNUwCW9A-1" edge="1">
          <mxGeometry relative="1" as="geometry" />
        </mxCell>
        <mxCell id="aa29xDfJAw8vbNUwCW9A-3" value="iLabel" style="html=1;whiteSpace=wrap;" parent="1" vertex="1">
          <mxGeometry x="425" y="290" width="110" height="50" as="geometry" />
        </mxCell>
        <mxCell id="aa29xDfJAw8vbNUwCW9A-15" style="rounded=0;orthogonalLoop=1;jettySize=auto;html=1;startArrow=diamond;startFill=1;" parent="1" source="aa29xDfJAw8vbNUwCW9A-6" target="aa29xDfJAw8vbNUwCW9A-9" edge="1">
          <mxGeometry relative="1" as="geometry" />
        </mxCell>
        <mxCell id="aa29xDfJAw8vbNUwCW9A-16" style="rounded=0;orthogonalLoop=1;jettySize=auto;html=1;startArrow=diamond;startFill=1;" parent="1" source="aa29xDfJAw8vbNUwCW9A-6" target="aa29xDfJAw8vbNUwCW9A-8" edge="1">
          <mxGeometry relative="1" as="geometry" />
        </mxCell>
        <mxCell id="aa29xDfJAw8vbNUwCW9A-17" style="rounded=0;orthogonalLoop=1;jettySize=auto;html=1;startArrow=diamond;startFill=1;" parent="1" source="aa29xDfJAw8vbNUwCW9A-6" target="aa29xDfJAw8vbNUwCW9A-10" edge="1">
          <mxGeometry relative="1" as="geometry" />
        </mxCell>
        <mxCell id="aa29xDfJAw8vbNUwCW9A-18" style="rounded=0;orthogonalLoop=1;jettySize=auto;html=1;endArrow=block;endFill=0;" parent="1" source="aa29xDfJAw8vbNUwCW9A-6" target="aa29xDfJAw8vbNUwCW9A-2" edge="1">
          <mxGeometry relative="1" as="geometry" />
        </mxCell>
        <mxCell id="8h19YqYW70qOWK2TjWqo-3" style="edgeStyle=orthogonalEdgeStyle;rounded=0;orthogonalLoop=1;jettySize=auto;html=1;entryX=0;entryY=0.5;entryDx=0;entryDy=0;endArrow=block;endFill=0;" parent="1" source="aa29xDfJAw8vbNUwCW9A-6" target="8h19YqYW70qOWK2TjWqo-1" edge="1">
          <mxGeometry relative="1" as="geometry" />
        </mxCell>
        <mxCell id="aa29xDfJAw8vbNUwCW9A-6" value="Window" style="html=1;whiteSpace=wrap;fillColor=#f8cecc;strokeColor=#b85450;" parent="1" vertex="1">
          <mxGeometry x="211" y="700" width="110" height="50" as="geometry" />
        </mxCell>
        <mxCell id="aa29xDfJAw8vbNUwCW9A-12" style="rounded=0;orthogonalLoop=1;jettySize=auto;html=1;startArrow=diamond;startFill=1;" parent="1" source="aa29xDfJAw8vbNUwCW9A-7" target="aa29xDfJAw8vbNUwCW9A-8" edge="1">
          <mxGeometry relative="1" as="geometry" />
        </mxCell>
        <mxCell id="aa29xDfJAw8vbNUwCW9A-13" style="rounded=0;orthogonalLoop=1;jettySize=auto;html=1;startArrow=diamond;startFill=1;" parent="1" source="aa29xDfJAw8vbNUwCW9A-7" target="aa29xDfJAw8vbNUwCW9A-9" edge="1">
          <mxGeometry relative="1" as="geometry" />
        </mxCell>
        <mxCell id="aa29xDfJAw8vbNUwCW9A-14" style="rounded=0;orthogonalLoop=1;jettySize=auto;html=1;startArrow=diamond;startFill=1;" parent="1" source="aa29xDfJAw8vbNUwCW9A-7" target="aa29xDfJAw8vbNUwCW9A-11" edge="1">
          <mxGeometry relative="1" as="geometry" />
        </mxCell>
        <mxCell id="aa29xDfJAw8vbNUwCW9A-19" style="rounded=0;orthogonalLoop=1;jettySize=auto;html=1;endArrow=block;endFill=0;" parent="1" source="aa29xDfJAw8vbNUwCW9A-7" target="aa29xDfJAw8vbNUwCW9A-3" edge="1">
          <mxGeometry relative="1" as="geometry" />
        </mxCell>
        <mxCell id="8h19YqYW70qOWK2TjWqo-4" style="edgeStyle=orthogonalEdgeStyle;rounded=0;orthogonalLoop=1;jettySize=auto;html=1;entryX=1;entryY=0.5;entryDx=0;entryDy=0;endArrow=block;endFill=0;" parent="1" source="aa29xDfJAw8vbNUwCW9A-7" target="8h19YqYW70qOWK2TjWqo-1" edge="1">
          <mxGeometry relative="1" as="geometry" />
        </mxCell>
        <mxCell id="aa29xDfJAw8vbNUwCW9A-7" value="&lt;div&gt;&lt;span style=&quot;background-color: initial;&quot;&gt;Label&lt;/span&gt;&lt;br&gt;&lt;/div&gt;" style="html=1;whiteSpace=wrap;fillColor=#fff2cc;strokeColor=#d6b656;" parent="1" vertex="1">
          <mxGeometry x="511" y="700" width="110" height="50" as="geometry" />
        </mxCell>
        <mxCell id="aa29xDfJAw8vbNUwCW9A-8" value="widget" style="html=1;whiteSpace=wrap;fillColor=#fff2cc;strokeColor=#d6b656;" parent="1" vertex="1">
          <mxGeometry x="425" y="830" width="110" height="50" as="geometry" />
        </mxCell>
        <mxCell id="aa29xDfJAw8vbNUwCW9A-9" value="container" style="html=1;whiteSpace=wrap;fillColor=#f8cecc;strokeColor=#b85450;" parent="1" vertex="1">
          <mxGeometry x="295" y="830" width="110" height="50" as="geometry" />
        </mxCell>
        <mxCell id="aa29xDfJAw8vbNUwCW9A-10" value="window" style="html=1;whiteSpace=wrap;" parent="1" vertex="1">
          <mxGeometry x="165" y="830" width="110" height="50" as="geometry" />
        </mxCell>
        <mxCell id="aa29xDfJAw8vbNUwCW9A-11" value="label" style="html=1;whiteSpace=wrap;" parent="1" vertex="1">
          <mxGeometry x="555" y="830" width="110" height="50" as="geometry" />
        </mxCell>
        <mxCell id="aa29xDfJAw8vbNUwCW9A-23" value="" style="line;strokeWidth=1;fillColor=none;align=left;verticalAlign=middle;spacingTop=-1;spacingLeft=3;spacingRight=3;rotatable=0;labelPosition=right;points=[];portConstraint=eastwest;strokeColor=inherit;" parent="1" vertex="1">
          <mxGeometry x="9" y="560" width="1011" height="8" as="geometry" />
        </mxCell>
        <mxCell id="8h19YqYW70qOWK2TjWqo-2" style="edgeStyle=orthogonalEdgeStyle;rounded=0;orthogonalLoop=1;jettySize=auto;html=1;startArrow=none;startFill=0;endArrow=block;endFill=0;" parent="1" source="8h19YqYW70qOWK2TjWqo-1" target="aa29xDfJAw8vbNUwCW9A-1" edge="1">
          <mxGeometry relative="1" as="geometry">
            <Array as="points">
              <mxPoint x="406" y="350" />
              <mxPoint x="406" y="350" />
            </Array>
          </mxGeometry>
        </mxCell>
        <mxCell id="8h19YqYW70qOWK2TjWqo-1" value="aWidget" style="html=1;whiteSpace=wrap;" parent="1" vertex="1">
          <mxGeometry x="351" y="600" width="110" height="50" as="geometry" />
        </mxCell>
        <mxCell id="ns9gy6NovxQaVPCiO-FX-8" style="edgeStyle=orthogonalEdgeStyle;rounded=0;orthogonalLoop=1;jettySize=auto;html=1;entryX=1;entryY=0.5;entryDx=0;entryDy=0;endArrow=block;endFill=0;" parent="1" source="ns9gy6NovxQaVPCiO-FX-3" target="aa29xDfJAw8vbNUwCW9A-1" edge="1">
          <mxGeometry relative="1" as="geometry">
            <Array as="points">
              <mxPoint x="750" y="155" />
            </Array>
          </mxGeometry>
        </mxCell>
        <mxCell id="ns9gy6NovxQaVPCiO-FX-3" value="iColumn" style="html=1;whiteSpace=wrap;" parent="1" vertex="1">
          <mxGeometry x="700" y="290" width="110" height="50" as="geometry" />
        </mxCell>
        <mxCell id="ns9gy6NovxQaVPCiO-FX-9" style="edgeStyle=orthogonalEdgeStyle;rounded=0;orthogonalLoop=1;jettySize=auto;html=1;entryX=1;entryY=0.5;entryDx=0;entryDy=0;endArrow=block;endFill=0;" parent="1" source="ns9gy6NovxQaVPCiO-FX-5" target="aa29xDfJAw8vbNUwCW9A-1" edge="1">
          <mxGeometry relative="1" as="geometry">
            <Array as="points">
              <mxPoint x="925" y="155" />
            </Array>
          </mxGeometry>
        </mxCell>
        <mxCell id="ns9gy6NovxQaVPCiO-FX-5" value="iRow" style="html=1;whiteSpace=wrap;" parent="1" vertex="1">
          <mxGeometry x="870" y="290" width="110" height="50" as="geometry" />
        </mxCell>
      </root>
    </mxGraphModel>
  </diagram>
  <diagram id="hyrlDwd_lt3lIMIbTsH5" name="Página-2">
    <mxGraphModel dx="2261" dy="836" grid="1" gridSize="10" guides="1" tooltips="1" connect="1" arrows="1" fold="1" page="1" pageScale="1" pageWidth="827" pageHeight="1169" math="0" shadow="0">
      <root>
        <mxCell id="0" />
        <mxCell id="1" parent="0" />
        <mxCell id="pYhqvfqcCWvZ2AhzlGh1-1" value="iWidget" style="html=1;whiteSpace=wrap;" vertex="1" parent="1">
          <mxGeometry x="355" y="40" width="110" height="50" as="geometry" />
        </mxCell>
        <mxCell id="pYhqvfqcCWvZ2AhzlGh1-17" style="edgeStyle=orthogonalEdgeStyle;rounded=0;orthogonalLoop=1;jettySize=auto;html=1;endArrow=block;endFill=0;" edge="1" parent="1" source="pYhqvfqcCWvZ2AhzlGh1-4" target="pYhqvfqcCWvZ2AhzlGh1-11">
          <mxGeometry relative="1" as="geometry">
            <Array as="points">
              <mxPoint x="129" y="220" />
              <mxPoint x="269" y="220" />
            </Array>
          </mxGeometry>
        </mxCell>
        <mxCell id="pYhqvfqcCWvZ2AhzlGh1-4" value="iWindow" style="html=1;whiteSpace=wrap;" vertex="1" parent="1">
          <mxGeometry x="74" y="240" width="110" height="50" as="geometry" />
        </mxCell>
        <mxCell id="pYhqvfqcCWvZ2AhzlGh1-20" style="edgeStyle=orthogonalEdgeStyle;rounded=0;orthogonalLoop=1;jettySize=auto;html=1;endArrow=block;endFill=0;" edge="1" parent="1" source="pYhqvfqcCWvZ2AhzlGh1-6" target="pYhqvfqcCWvZ2AhzlGh1-13">
          <mxGeometry relative="1" as="geometry" />
        </mxCell>
        <mxCell id="pYhqvfqcCWvZ2AhzlGh1-6" value="iLabel" style="html=1;whiteSpace=wrap;" vertex="1" parent="1">
          <mxGeometry x="514" y="240" width="110" height="50" as="geometry" />
        </mxCell>
        <mxCell id="pYhqvfqcCWvZ2AhzlGh1-18" style="edgeStyle=orthogonalEdgeStyle;rounded=0;orthogonalLoop=1;jettySize=auto;html=1;endArrow=block;endFill=0;" edge="1" parent="1" source="pYhqvfqcCWvZ2AhzlGh1-8" target="pYhqvfqcCWvZ2AhzlGh1-11">
          <mxGeometry relative="1" as="geometry" />
        </mxCell>
        <mxCell id="pYhqvfqcCWvZ2AhzlGh1-8" value="iColumn" style="html=1;whiteSpace=wrap;" vertex="1" parent="1">
          <mxGeometry x="214" y="240" width="110" height="50" as="geometry" />
        </mxCell>
        <mxCell id="pYhqvfqcCWvZ2AhzlGh1-19" style="edgeStyle=orthogonalEdgeStyle;rounded=0;orthogonalLoop=1;jettySize=auto;html=1;endArrow=block;endFill=0;" edge="1" parent="1" source="pYhqvfqcCWvZ2AhzlGh1-10" target="pYhqvfqcCWvZ2AhzlGh1-11">
          <mxGeometry relative="1" as="geometry">
            <Array as="points">
              <mxPoint x="399" y="220" />
              <mxPoint x="269" y="220" />
            </Array>
          </mxGeometry>
        </mxCell>
        <mxCell id="pYhqvfqcCWvZ2AhzlGh1-10" value="iRow" style="html=1;whiteSpace=wrap;" vertex="1" parent="1">
          <mxGeometry x="344" y="240" width="110" height="50" as="geometry" />
        </mxCell>
        <mxCell id="pYhqvfqcCWvZ2AhzlGh1-15" style="edgeStyle=orthogonalEdgeStyle;rounded=0;orthogonalLoop=1;jettySize=auto;html=1;endArrow=block;endFill=0;" edge="1" parent="1" source="pYhqvfqcCWvZ2AhzlGh1-11" target="pYhqvfqcCWvZ2AhzlGh1-1">
          <mxGeometry relative="1" as="geometry" />
        </mxCell>
        <mxCell id="pYhqvfqcCWvZ2AhzlGh1-11" value="iContainer" style="html=1;whiteSpace=wrap;" vertex="1" parent="1">
          <mxGeometry x="214" y="150" width="110" height="50" as="geometry" />
        </mxCell>
        <mxCell id="pYhqvfqcCWvZ2AhzlGh1-16" style="edgeStyle=orthogonalEdgeStyle;rounded=0;orthogonalLoop=1;jettySize=auto;html=1;endArrow=block;endFill=0;" edge="1" parent="1" source="pYhqvfqcCWvZ2AhzlGh1-13" target="pYhqvfqcCWvZ2AhzlGh1-1">
          <mxGeometry relative="1" as="geometry" />
        </mxCell>
        <mxCell id="pYhqvfqcCWvZ2AhzlGh1-13" value="iNoContainer" style="html=1;whiteSpace=wrap;" vertex="1" parent="1">
          <mxGeometry x="584" y="150" width="110" height="50" as="geometry" />
        </mxCell>
        <mxCell id="pYhqvfqcCWvZ2AhzlGh1-21" style="edgeStyle=orthogonalEdgeStyle;rounded=0;orthogonalLoop=1;jettySize=auto;html=1;endArrow=block;endFill=0;" edge="1" parent="1" source="pYhqvfqcCWvZ2AhzlGh1-14" target="pYhqvfqcCWvZ2AhzlGh1-13">
          <mxGeometry relative="1" as="geometry" />
        </mxCell>
        <mxCell id="pYhqvfqcCWvZ2AhzlGh1-14" value="iButton" style="html=1;whiteSpace=wrap;" vertex="1" parent="1">
          <mxGeometry x="644" y="240" width="110" height="50" as="geometry" />
        </mxCell>
        <mxCell id="pYhqvfqcCWvZ2AhzlGh1-23" value="" style="endArrow=none;dashed=1;html=1;dashPattern=1 3;strokeWidth=2;rounded=0;" edge="1" parent="1">
          <mxGeometry width="50" height="50" relative="1" as="geometry">
            <mxPoint x="20" y="310" as="sourcePoint" />
            <mxPoint x="820" y="310" as="targetPoint" />
          </mxGeometry>
        </mxCell>
        <mxCell id="pYhqvfqcCWvZ2AhzlGh1-31" style="edgeStyle=orthogonalEdgeStyle;rounded=0;orthogonalLoop=1;jettySize=auto;html=1;endArrow=block;endFill=0;" edge="1" parent="1" source="pYhqvfqcCWvZ2AhzlGh1-24" target="pYhqvfqcCWvZ2AhzlGh1-4">
          <mxGeometry relative="1" as="geometry" />
        </mxCell>
        <mxCell id="pYhqvfqcCWvZ2AhzlGh1-24" value="Window" style="html=1;whiteSpace=wrap;" vertex="1" parent="1">
          <mxGeometry x="74" y="410" width="110" height="50" as="geometry" />
        </mxCell>
        <mxCell id="pYhqvfqcCWvZ2AhzlGh1-32" style="edgeStyle=orthogonalEdgeStyle;rounded=0;orthogonalLoop=1;jettySize=auto;html=1;endArrow=block;endFill=0;" edge="1" parent="1" source="pYhqvfqcCWvZ2AhzlGh1-25" target="pYhqvfqcCWvZ2AhzlGh1-8">
          <mxGeometry relative="1" as="geometry" />
        </mxCell>
        <mxCell id="pYhqvfqcCWvZ2AhzlGh1-25" value="Column" style="html=1;whiteSpace=wrap;" vertex="1" parent="1">
          <mxGeometry x="214" y="410" width="110" height="50" as="geometry" />
        </mxCell>
        <mxCell id="pYhqvfqcCWvZ2AhzlGh1-33" style="edgeStyle=orthogonalEdgeStyle;rounded=0;orthogonalLoop=1;jettySize=auto;html=1;endArrow=block;endFill=0;" edge="1" parent="1" source="pYhqvfqcCWvZ2AhzlGh1-26" target="pYhqvfqcCWvZ2AhzlGh1-10">
          <mxGeometry relative="1" as="geometry" />
        </mxCell>
        <mxCell id="pYhqvfqcCWvZ2AhzlGh1-26" value="Row" style="html=1;whiteSpace=wrap;" vertex="1" parent="1">
          <mxGeometry x="344" y="410" width="110" height="50" as="geometry" />
        </mxCell>
        <mxCell id="pYhqvfqcCWvZ2AhzlGh1-34" style="edgeStyle=orthogonalEdgeStyle;rounded=0;orthogonalLoop=1;jettySize=auto;html=1;endArrow=block;endFill=0;" edge="1" parent="1" source="pYhqvfqcCWvZ2AhzlGh1-27" target="pYhqvfqcCWvZ2AhzlGh1-6">
          <mxGeometry relative="1" as="geometry" />
        </mxCell>
        <mxCell id="pYhqvfqcCWvZ2AhzlGh1-27" value="Label" style="html=1;whiteSpace=wrap;" vertex="1" parent="1">
          <mxGeometry x="514" y="410" width="110" height="50" as="geometry" />
        </mxCell>
        <mxCell id="pYhqvfqcCWvZ2AhzlGh1-35" style="edgeStyle=orthogonalEdgeStyle;rounded=0;orthogonalLoop=1;jettySize=auto;html=1;endArrow=block;endFill=0;" edge="1" parent="1" source="pYhqvfqcCWvZ2AhzlGh1-29" target="pYhqvfqcCWvZ2AhzlGh1-14">
          <mxGeometry relative="1" as="geometry" />
        </mxCell>
        <mxCell id="pYhqvfqcCWvZ2AhzlGh1-29" value="Button" style="html=1;whiteSpace=wrap;" vertex="1" parent="1">
          <mxGeometry x="644" y="410" width="110" height="50" as="geometry" />
        </mxCell>
        <mxCell id="pYhqvfqcCWvZ2AhzlGh1-30" value="GTK" style="text;html=1;align=center;verticalAlign=middle;whiteSpace=wrap;rounded=0;fontStyle=1;fontSize=14;" vertex="1" parent="1">
          <mxGeometry y="330" width="60" height="30" as="geometry" />
        </mxCell>
        <mxCell id="pYhqvfqcCWvZ2AhzlGh1-36" value="iContainer::addChild(iWidget)" style="text;html=1;align=center;verticalAlign=middle;whiteSpace=wrap;rounded=0;" vertex="1" parent="1">
          <mxGeometry x="194" y="110" width="150" height="30" as="geometry" />
        </mxCell>
        <mxCell id="pYhqvfqcCWvZ2AhzlGh1-37" value="GTK_CONTAINER_ADD(GTKCONTAINER PADRE, GTKWIDGET HIJO)" style="text;html=1;align=center;verticalAlign=middle;whiteSpace=wrap;rounded=0;" vertex="1" parent="1">
          <mxGeometry x="45.75" y="490" width="446.5" height="30" as="geometry" />
        </mxCell>
        <mxCell id="pYhqvfqcCWvZ2AhzlGh1-38" value="window.addChild(label)" style="text;html=1;align=center;verticalAlign=middle;whiteSpace=wrap;rounded=0;" vertex="1" parent="1">
          <mxGeometry x="-180" y="70" width="140" height="30" as="geometry" />
        </mxCell>
      </root>
    </mxGraphModel>
  </diagram>
</mxfile>
